<?xml version="1.0" encoding="UTF-8"?>
<svg width="22" height="22" version="1.1" viewBox="0 0 32 32" xmlns="http://www.w3.org/2000/svg">
 <path d="m20.358 19.928h-4.5018v3.0343c3.3e-5 -3.4e-5 9.9e-5 -3.4e-5 1.33e-4 -5.8e-5 1.8585-1.0459 3.3995-1.9971 4.5017-3.0343z" fill="#d39700"/>
 <path d="m10.552 12.938c-0.69357 0.89969-1.0777 1.8873-1.0777 3.0624 0 1.1762 0.38657 2.162 1.0844 3.0584 0.81292 1.0442 2.0497 1.9669 3.6128 2.9218 0.33183 0.2027 0.67963 0.4072 1.0394 0.61444-0.12798 0.07141-0.25362 0.14205-0.38454 0.21454-0.8708 0.4823-1.7712 0.98108-2.6627 1.5288-0.08833 0.0543-0.17676 0.1093-0.26512 0.16468-0.31458-0.20484-0.6257-0.41373-0.9278-0.63193-1.2583-0.90882-2.3849-1.946-3.2064-3.199-0.8481-1.2935-1.3709-2.817-1.3709-4.6717 0-1.8518 0.5229-3.3756 1.3688-4.6731l-4.1711-2.4082v14.162l6.3092 3.6426c0.79932-0.67435 1.6793-1.2813 2.5917-1.8419 0.8709-0.53504 1.7668-1.0318 2.6382-1.5145 0.24716-0.13691 0.4888-0.27172 0.72594-0.4051v-3.0343h-2.1043l1.9806-3.4369h0.12375v-0.4911z" fill="#fb0"/>
 <path d="m13.02 28.525 2.8361 1.6374v-3.3572c-1.0584 0.59424-2.0059 1.1566-2.8361 1.7198z" fill="#fb0"/>
 <path d="m18.694 28.524c-0.36146-0.24553-0.74089-0.4909-1.1487-0.73876-0.33264-0.20216-0.68129-0.40632-1.0419-0.61336 0.10054-0.05602 0.19902-0.11136 0.30152-0.16813 0.90189-0.49956 1.8345-1.0162 2.7459-1.579 0.08704-0.05376 0.17588-0.10964 0.26471-0.16559 0.31302 0.20264 0.62273 0.4092 0.92354 0.62482 0.37226 0.26681 0.72926 0.54796 1.074 0.83927l6.3088-3.6424 5.8e-5 -3.3e-5v-14.162l-4.1704 2.4078c0.65057 0.99874 1.1084 2.1325 1.2848 3.4461h-3.1505c-0.171-0.66329-0.4915-1.2644-0.92914-1.8324l-5.2998 3.0598v0.4911h9.45c-0.06671 1.3022-0.39956 2.4346-0.92157 3.4369-0.13349 0.25632-0.28061 0.50328-0.43778 0.74313-1.1416 1.7421-2.8734 3.0664-4.7263 4.2108-0.89695 0.55395-1.8215 1.0662-2.7201 1.5639-0.21898 0.12131-0.43305 0.24073-0.64407 0.3592-3.4e-5 3.4e-5 -9.9e-5 3.4e-5 -1.33e-4 5.8e-5l-2e-6 3.3572z" fill="#d39700"/>
 <path d="m29.043 23.614-13.187 7.6137-1.02e-4 -6.9e-5v0.77283l1.02e-4 6.8e-5 13.856-8.0001 1.35e-4 -6.8e-5v-16l-0.66938 0.38646v15.227z" fill="#d39700"/>
 <path d="m2.6694 8.3865-0.66938-0.38646v16l1.012e-4 6.8e-5 13.856 8v-0.77283l-13.187-7.6136-6.81e-5 -3.3e-5z" fill="#fb0"/>
 <g fill="#d50936">
  <path d="m21.774 5.2539c-0.79414 0.66437-1.666 1.2647-2.569 1.8204-0.85141 0.52398-1.7258 1.0124-2.5768 1.487-0.26282 0.14662-0.51992 0.29093-0.77141 0.43359-3.4e-5 3.4e-5 -9.9e-5 3.4e-5 -1.34e-4 5.8e-5 -2.3694 1.3439-4.2188 2.5349-5.3041 3.9428l5.3041 3.0623 5.2998-3.0598c-0.8143-1.0568-2.0535-1.993-3.6259-2.9612-0.32994-0.20314-0.67516-0.40808-1.0323-0.61566 0.14469-0.08139 0.28707-0.16201 0.43542-0.24472 0.80865-0.45101 1.7252-0.9622 2.6002-1.5007 0.08748-0.05382 0.175-0.10839 0.26255-0.16326 0.31353 0.20551 0.62361 0.41502 0.92476 0.63365 1.2687 0.92124 2.4048 1.9709 3.2303 3.2382l4.1704-2.4078v-5.8e-5z"/>
  <path d="m15.856 1.8375-3.4e-5 3.38e-5 -2.7942 1.6132c0.35108 0.23731 0.7186 0.47483 1.1129 0.71512 0.33139 0.20193 0.67868 0.40612 1.0378 0.61329-0.08951 0.0502-0.17706 0.0997-0.2682 0.15051-0.90956 0.5073-1.8501 1.0319-2.7677 1.6024-0.08887 0.05524-0.1751 0.11022-0.2616 0.16522-0.31444-0.20362-0.62564-0.41109-0.928-0.6275-0.36306-0.25981-0.71156-0.53308-1.0488-0.81566l-6.3473 3.6646v1.17e-4l4.1711 2.4082c1.1446-1.7556 2.8835-3.0948 4.7458-4.2527 0.90395-0.56207 1.8361-1.082 2.7419-1.5872 0.20599-0.11485 0.40734-0.22801 0.60625-0.34029 3.4e-5 -3.4e-5 9.9e-5 -3.4e-5 1.34e-4 -5.8e-5 1.0402-0.58738 1.9731-1.1425 2.7933-1.6964z"/>
  <path d="m2 8.0001v1.02e-4l0.66938 0.38646v-1.68e-4l13.187-7.6134 1.02e-4 -6.74e-5 13.187 7.6135v1.68e-4l0.66938-0.38646v-1.02e-4l-13.856-7.9999-1.01e-4 6.75e-5z"/>
 </g>
</svg>
