<svg xmlns="http://www.w3.org/2000/svg" xmlns:xlink="http://www.w3.org/1999/xlink" width="831.496" height="415.748" viewBox="0 0 220 110"><style><![CDATA[.B{opacity:.996}.C{font-family:sans-serif}.D{word-spacing:0px}.E{stroke-linejoin:bevel}.F{fill:#7e11de}.G{fill:#c711de}.H{fill:#fff}.I{stroke-width:3}.J{fill:#000}.K{font-weight:bold}.L{stroke:#001102}.M{fill:#939393}.N{font-size:6.222px}.O{font-size:10.583px}.P{filter:url(#A)}.Q{stroke:#b1ff4e}.R{font-size:5.405px}.S{stroke-opacity:.348}]]></style><defs><filter id="A" color-interpolation-filters="sRGB"><feFlood flood-opacity=".173" flood-color="#000"/><feComposite in2="SourceGraphic" operator="in"/><feGaussianBlur stdDeviation="1.2"/><feOffset dx="-0.2"/><feComposite in="SourceGraphic"/></filter><path id="B" d="M29.041 25.92h55.8v27.9h-55.8z"/></defs><g class="E"><path d="M122.045.474h97.713v30.321h-97.713z" fill-opacity=".447" stroke="#00ce9a" stroke-width=".836" stroke-dasharray="1.6726, 0.836303, 0.418151, 0.836303" paint-order="normal" class="B H"/><path d="M1.676.404H64.32v108.501H1.676z" fill="#c87137" stroke="#f4ffff" stroke-width=".745" paint-order="normal" class="B S"/></g><g transform="matrix(.521271 0 0 .521271 .894095 -2.864483)"><use xlink:href="#B" paint-order="normal" class="B E F I L"/><g class="G"><circle cx="34.119" cy="31.089" r="3.538" paint-order="normal" class="B"/><circle cx="34.285" cy="48.834" r="3.538" paint-order="normal" class="B"/><circle cx="79.512" cy="30.924" r="3.538" paint-order="normal" class="B"/><circle cx="79.678" cy="48.67" r="3.538" paint-order="normal" class="B"/></g></g><path d="M95.118 61.441l-9.341 9.341h9.605l12.729-12.729-12.729-12.729h-9.605l9.341 9.341H76.442v6.775z" stroke="#f4ffff" stroke-width=".739" class="M S"/><g transform="matrix(.521271 0 0 .521271 .894095 13.200102)"><use xlink:href="#B" paint-order="normal" class="B E F I L"/><g class="G"><circle cx="34.119" cy="31.089" r="3.538" paint-order="normal" class="B"/><circle cx="34.285" cy="48.834" r="3.538" paint-order="normal" class="B"/><circle cx="79.512" cy="30.924" r="3.538" paint-order="normal" class="B"/><circle cx="79.678" cy="48.67" r="3.538" paint-order="normal" class="B"/></g></g><g stroke="#e2e2e2"><g transform="matrix(.475729 0 0 .475729 108.931 25.1605)"><use xlink:href="#B" paint-order="normal" class="B E F I"/><g stroke="none" class="G"><circle cx="34.119" cy="31.089" r="3.538" paint-order="normal" class="B"/><circle cx="34.285" cy="48.834" r="3.538" paint-order="normal" class="B"/><circle cx="79.512" cy="30.924" r="3.538" paint-order="normal" class="B"/><circle cx="79.678" cy="48.67" r="3.538" paint-order="normal" class="B"/></g></g><g transform="matrix(.475729 0 0 .475729 108.931 39.739902)"><use xlink:href="#B" paint-order="normal" class="B E F I"/><g stroke="none" class="G"><circle cx="34.119" cy="31.089" r="3.538" paint-order="normal" class="B"/><circle cx="34.285" cy="48.834" r="3.538" paint-order="normal" class="B"/><circle cx="79.512" cy="30.924" r="3.538" paint-order="normal" class="B"/><circle cx="79.678" cy="48.67" r="3.538" paint-order="normal" class="B"/></g></g><g transform="matrix(.475729 0 0 .475729 108.931 53.012785)"><use xlink:href="#B" paint-order="normal" class="B E F I"/><g stroke="none" class="G"><circle cx="34.119" cy="31.089" r="3.538" paint-order="normal" class="B"/><circle cx="34.285" cy="48.834" r="3.538" paint-order="normal" class="B"/><circle cx="79.512" cy="30.924" r="3.538" paint-order="normal" class="B"/><circle cx="79.678" cy="48.67" r="3.538" paint-order="normal" class="B"/></g></g></g><text xml:space="preserve" x="123.327" y="47.659" letter-spacing="0" class="C D J N"><tspan x="123.327" y="46.393" class="H K">20 GRC</tspan></text><text xml:space="preserve" x="123.222" y="75.511" letter-spacing="0" class="C D J N"><tspan x="123.222" y="74.245" class="H K">15 GRC</tspan></text><text xml:space="preserve" x="123.365" y="62.238" letter-spacing="0" class="C D J N"><tspan x="123.365" y="60.972" class="H K">35 GRC</tspan></text><g transform="matrix(.521271 0 0 .521271 .894095 61.393867)"><use xlink:href="#B" paint-order="normal" class="B E F I L"/><g class="G"><circle cx="34.119" cy="31.089" r="3.538" paint-order="normal" class="B"/><circle cx="34.285" cy="48.834" r="3.538" paint-order="normal" class="B"/><circle cx="79.512" cy="30.924" r="3.538" paint-order="normal" class="B"/><circle cx="79.678" cy="48.67" r="3.538" paint-order="normal" class="B"/></g></g><g transform="matrix(.521271 0 0 .521271 .894095 77.45845)"><use xlink:href="#B" paint-order="normal" class="B E F I L"/><g class="G"><circle cx="34.119" cy="31.089" r="3.538" paint-order="normal" class="B"/><circle cx="34.285" cy="48.834" r="3.538" paint-order="normal" class="B"/><circle cx="79.512" cy="30.924" r="3.538" paint-order="normal" class="B"/><circle cx="79.678" cy="48.67" r="3.538" paint-order="normal" class="B"/></g></g><text xml:space="preserve" x="65.61" y="41.867" font-size="8.278" letter-spacing="0" class="C D M"><tspan x="65.61" y="41.867" class="K">Transaction</tspan></text><text xml:space="preserve" x="153.485" y="60.881" letter-spacing="0" class="C D H O"><tspan x="153.485" y="60.881" class="K">Output</tspan></text><text xml:space="preserve" x="1.759" y="60.497" font-size="9.378" letter-spacing="0" fill="#b1ff4e" class="C D P"><tspan x="1.759" y="60.497" class="K">Input</tspan></text><text xml:space="preserve" x="14.974" y="8.523" letter-spacing="0" class="C D J O"><tspan x="14.974" y="8.523" class="H">Wallet</tspan></text><g transform="translate(0 .529)" class="P"><path d="M31.259 57.73h29.087v14.544H31.259z" stroke-width="1.564" paint-order="normal" class="B E F Q"/><g class="G"><circle cx="33.909" cy="60.369" r="1.844" paint-order="normal" class="B"/><circle cx="33.856" cy="69.674" r="1.844" paint-order="normal" class="B"/><circle cx="57.431" cy="60.338" r="1.844" paint-order="normal" class="B"/><circle cx="57.518" cy="69.588" r="1.844" paint-order="normal" class="B"/></g><g transform="matrix(.521271 0 0 .521271 16.120716 29.264691)"><use xlink:href="#B" stroke-linejoin="round" paint-order="normal" class="B F I Q"/><g class="G"><circle cx="34.119" cy="31.089" r="3.538" paint-order="normal" class="B"/><circle cx="34.285" cy="48.834" r="3.538" paint-order="normal" class="B"/><circle cx="79.512" cy="30.924" r="3.538" paint-order="normal" class="B"/><circle cx="79.678" cy="48.67" r="3.538" paint-order="normal" class="B"/></g></g><text xml:space="preserve" x="33.468" y="52.231" font-size="5.997" letter-spacing="0" class="C D J"><tspan x="33.468" y="52.231" class="H K">15 GRC</tspan></text><text xml:space="preserve" x="34.188" y="67.092" font-size="5.742" letter-spacing="0" class="C D J"><tspan x="34.188" y="67.092" class="H K">45 GRC</tspan></text></g><text xml:space="preserve" x="78.204" y="78.839" font-size="6.966" letter-spacing="0" class="C D M"><tspan x="78.204" y="78.839" class="K">60 GRC</tspan></text><path d="M9.18 24.234l4.231-4.231-4.231-4.231H5.987l3.105 3.105H2.884v2.252h6.209l-3.105 3.105zm4.232 9.749L9.18 29.752H5.987l3.105 3.105H2.884v2.252h6.209l-3.105 3.105H9.18zM2.884 81.051v2.252h6.209l-3.105 3.105H9.18l4.231-4.231-4.231-4.231H5.987l3.105 3.105zm10.528 17.191L9.18 94.01H5.987l3.105 3.105H2.884v2.252h6.209l-3.105 3.105H9.18zm12.97-32.133H20.82v2.018h5.562L23.6 70.909h2.861l3.791-3.791-3.791-3.791H23.6zm-3.1-13.328h2.861l3.791-3.791-3.791-3.791h-2.861l2.782 2.782h-5.562v2.018h5.562z" fill-opacity=".405" fill="#f2f2f2"/><g transform="matrix(.266201 0 0 .266201 119.24375 4.760027)"><use xlink:href="#B" paint-order="normal" class="B E F I L"/><g class="G"><circle cx="34.119" cy="31.089" r="3.538" paint-order="normal" class="B"/><circle cx="34.285" cy="48.834" r="3.538" paint-order="normal" class="B"/><circle cx="79.512" cy="30.924" r="3.538" paint-order="normal" class="B"/><circle cx="79.678" cy="48.67" r="3.538" paint-order="normal" class="B"/></g></g><text xml:space="preserve" x="143.67" y="16.579" letter-spacing="0" class="C D J R"><tspan x="142.612" y="16.865" class="H"> = Exsiting UTXO</tspan></text><g transform="matrix(.266201 0 0 .266201 119.24375 14.575002)"><use xlink:href="#B" stroke="#fff" paint-order="normal" class="B E F I"/><g class="G"><circle cx="34.119" cy="31.089" r="3.538" paint-order="normal" class="B"/><circle cx="34.285" cy="48.834" r="3.538" paint-order="normal" class="B"/><circle cx="79.512" cy="30.924" r="3.538" paint-order="normal" class="B"/><circle cx="79.678" cy="48.67" r="3.538" paint-order="normal" class="B"/></g></g><text xml:space="preserve" x="143.67" y="26.627" letter-spacing="0" class="C D J R"><tspan x="142.612" y="27.156" class="H"> = New UTXO</tspan></text><g transform="translate(-1.058 .529)"><g transform="matrix(.29441 0 0 .29441 116.87349 58.809285)" class="P"><path d="M38.078-195.287h50.454v25.227H38.078z" stroke-width="2.713" paint-order="normal" class="B E F Q"/><g class="G"><circle cx="42.67" cy="-190.614" r="3.199" paint-order="normal" class="B"/><circle cx="42.82" cy="-174.569" r="3.199" paint-order="normal" class="B"/><circle cx="83.713" cy="-190.763" r="3.199" paint-order="normal" class="B"/><circle cx="83.863" cy="-174.718" r="3.199" paint-order="normal" class="B"/></g></g><text xml:space="preserve" x="143.67" y="6.897" letter-spacing="0" class="C D J R"><tspan x="143.67" y="6.897" class="H"> = UTXO → Spent TX Output</tspan></text></g></svg>
