<?xml version="1.0" encoding="utf-8"?>
<!-- Generator: Adobe Illustrator 17.1.0, SVG Export Plug-In . SVG Version: 6.00 Build 0)  -->
<!DOCTYPE svg PUBLIC "-//W3C//DTD SVG 1.1//EN" "http://www.w3.org/Graphics/SVG/1.1/DTD/svg11.dtd">
<svg version="1.1" id="Ebene_1" xmlns="http://www.w3.org/2000/svg" xmlns:xlink="http://www.w3.org/1999/xlink" x="0px" y="0px"
	 viewBox="0 0 44 44" enable-background="new 0 0 44 44" xml:space="preserve">
<path fill="#4D4C4C" d="M10.8,9.6c0,1.2,1,2.1,2.1,2.1H27c1.2,0,1.5,0.7,0.6,1.5L8.1,32.8c-0.8,0.8-0.8,2.2,0,3s2.2,0.8,3,0
	l19.5-19.5c0.8-0.8,1.5-0.6,1.5,0.6v14.1c0,1.2,1,2.1,2.1,2.1l0,0c1.2,0,2.1-1,2.1-2.1V13.9c0-1.2,0-3.1,0-4.3s0-2.1,0-2.1
	c0,0-1,0-2.1,0H12.9C11.8,7.5,10.8,8.5,10.8,9.6L10.8,9.6z" />
</svg>