<?xml version="1.0" encoding="utf-8"?>
<!-- Generator: Adobe Illustrator 17.1.0, SVG Export Plug-In . SVG Version: 6.00 Build 0)  -->
<!DOCTYPE svg PUBLIC "-//W3C//DTD SVG 1.1//EN" "http://www.w3.org/Graphics/SVG/1.1/DTD/svg11.dtd">
<svg version="1.1" id="Ebene_3" xmlns="http://www.w3.org/2000/svg" xmlns:xlink="http://www.w3.org/1999/xlink" x="0px" y="0px"
	 viewBox="0 0 100 100" enable-background="new 0 0 100 100" xml:space="preserve">
<path fill="#242424" d="M89.6,77.1L74.1,61.6c2.9-5.1,4.6-11,4.6-17.3C78.6,24.8,62.8,9,43.3,9C23.9,9,8,24.8,8,44.3
	c0,19.5,15.8,35.3,35.3,35.3c7.3,0,14-2.2,19.7-6l15,15c1.6,1.6,3.7,2.4,5.8,2.4c2.1,0,4.2-0.8,5.8-2.4
	C92.7,85.4,92.7,80.3,89.6,77.1z M18.9,44.3c0-13.5,11-24.4,24.4-24.4c13.5,0,24.4,11,24.4,24.4c0,13.5-11,24.4-24.4,24.4
	C29.9,68.7,18.9,57.8,18.9,44.3z" />
</svg>