<?xml version="1.0" encoding="utf-8"?>
<!-- Generator: Adobe Illustrator 17.1.0, SVG Export Plug-In . SVG Version: 6.00 Build 0)  -->
<!DOCTYPE svg PUBLIC "-//W3C//DTD SVG 1.1//EN" "http://www.w3.org/Graphics/SVG/1.1/DTD/svg11.dtd">
<svg version="1.1" id="Ebene_2" xmlns="http://www.w3.org/2000/svg" xmlns:xlink="http://www.w3.org/1999/xlink" x="0px" y="0px"
	 viewBox="0 0 100 100" enable-background="new 0 0 100 100" xml:space="preserve">
<g>
	<path fill="#242424" d="M34.1,50.4c0,8.8,7.2,16,16,16c8.8,0,16-7.2,16-16c0-8.8-7.2-16-16-16C41.3,34.4,34.1,41.5,34.1,50.4z" />
	<path fill="#242424" d="M22.8,44.2c2.7-12.6,14-21.9,27.4-21.9c7.7,0,14.7,3.2,19.8,8.2c2.3,2.3,6.1,2.4,8.5,0
		c2.3-2.3,2.3-6.1,0-8.5c-7.2-7.2-17.2-11.9-28.3-11.9C32.2,10.2,17.1,22,12,38H0v12h16.1C21.1,50,22.4,46.1,22.8,44.2z" />
	<path fill="#242424" d="M84.1,50c-5,0-6.2,4.2-6.6,6.2c-2.7,12.6-14,22.1-27.4,22.1c-7.7,0-14.7-3.1-19.8-8.2
		c-2.3-2.3-6.1-2.3-8.5,0c-2.3,2.3-2.3,6.2,0,8.5c7.2,7.2,17.2,11.5,28.3,11.5C68,90.2,83.2,80,88.3,62H100V50H84.1z" />
</g>
</svg>