<?xml version="1.0" encoding="utf-8"?>
<!-- Generator: Adobe Illustrator 17.1.0, SVG Export Plug-In . SVG Version: 6.00 Build 0)  -->
<!DOCTYPE svg PUBLIC "-//W3C//DTD SVG 1.1//EN" "http://www.w3.org/Graphics/SVG/1.1/DTD/svg11.dtd">
<svg version="1.1" id="Ebene_1" xmlns="http://www.w3.org/2000/svg" xmlns:xlink="http://www.w3.org/1999/xlink" x="0px" y="0px"
	 viewBox="0 0 100 100" enable-background="new 0 0 100 100" xml:space="preserve">
<g>
	<path fill="#242424" d="M17.9,55.6c0.7,0.3,1.6-0.1,1.8-0.9l3.7-10.5l8.3,12.7l8.4-13.2l8.6,14l7.9-24.5c0.2-0.8-0.2-1.6-0.9-1.8
		c-0.7-0.2-1.6,0.2-1.8,0.9l-6,18.5l-7.8-12.6l-8.5,13.3l-9-13.9l-5.6,16C16.8,54.5,17.2,55.4,17.9,55.6z" />
	<path fill="#242424" d="M59,10V4H47v6H7v6.9v4.3V67h40v11.2L24.4,96h5.7L47,84.3V85h12v-0.7L75.7,96h5.7L59,78.2V67h34V21.2v-4.3
		V10H59z M87,62H58.6H47.1H13V23h74V62z" />
	<path fill="#242424" d="M72,45c4.2,0,7.6-3.4,7.6-7.6c0-4.2-3.4-7.6-7.6-7.6s-7.6,3.4-7.6,7.6C64.4,41.6,67.8,45,72,45z" />
	<rect x="64" y="50" fill="#242424" width="6" height="6" />
	<rect x="76" y="50" fill="#242424" width="6" height="6" />
</g>
</svg>