<?xml version="1.0" encoding="utf-8"?>
<!-- Generator: Adobe Illustrator 17.1.0, SVG Export Plug-In . SVG Version: 6.00 Build 0)  -->
<!DOCTYPE svg PUBLIC "-//W3C//DTD SVG 1.1//EN" "http://www.w3.org/Graphics/SVG/1.1/DTD/svg11.dtd">
<svg version="1.1" xmlns="http://www.w3.org/2000/svg" xmlns:xlink="http://www.w3.org/1999/xlink" x="0px" y="0px"
	 viewBox="0 0 100 100" enable-background="new 0 0 100 100" xml:space="preserve">
<g id="Ebene_1">
	<g>
		<path fill="#242424" d="M17.9,55.6c0.7,0.3,1.6-0.1,1.8-0.9l3.7-10.5l8.3,12.7l8.4-13.2l8.6,14l7.9-24.5c0.2-0.8-0.2-1.6-0.9-1.8
			c-0.7-0.2-1.6,0.2-1.8,0.9l-6,18.5l-7.8-12.6l-8.5,13.3l-9-13.9l-5.6,16C16.8,54.5,17.2,55.4,17.9,55.6z" />
		<path fill="#242424" d="M59,10V4H47v6H7v6.9v4.3V67h40v11.2L24.4,96h5.7L47,84.3V85h12v-0.7L75.7,96h5.7L59,78.2V67h34V21.2v-4.3
			V10H59z M87,62H58.6H47.1H13V23h74V62z" />
		<path fill="#242424" d="M72,45c4.2,0,7.6-3.4,7.6-7.6c0-4.2-3.4-7.6-7.6-7.6s-7.6,3.4-7.6,7.6C64.4,41.6,67.8,45,72,45z" />
		<rect x="64" y="50" fill="#242424" width="6" height="6" />
		<rect x="76" y="50" fill="#242424" width="6" height="6" />
	</g>
</g>
<g id="Ebene_2">
	<g>
		<path fill="#242424" d="M34.1,50.4c0,8.8,7.2,16,16,16c8.8,0,16-7.2,16-16c0-8.8-7.2-16-16-16C41.3,34.4,34.1,41.5,34.1,50.4z" />
		<path fill="#242424" d="M22.8,44.2c2.7-12.6,14-21.9,27.4-21.9c7.7,0,14.7,3.2,19.8,8.2c2.3,2.3,6.1,2.4,8.5,0
			c2.3-2.3,2.3-6.1,0-8.5c-7.2-7.2-17.2-11.9-28.3-11.9C32.2,10.2,17.1,22,12,38H0v12h16.1C21.1,50,22.4,46.1,22.8,44.2z" />
		<path fill="#242424" d="M84.1,50c-5,0-6.2,4.2-6.6,6.2c-2.7,12.6-14,22.1-27.4,22.1c-7.7,0-14.7-3.1-19.8-8.2
			c-2.3-2.3-6.1-2.3-8.5,0c-2.3,2.3-2.3,6.2,0,8.5c7.2,7.2,17.2,11.5,28.3,11.5C68,90.2,83.2,80,88.3,62H100V50H84.1z" />
	</g>
</g>
<g id="Ebene_3">
	<path fill="#242424" d="M89.6,77.1L74.1,61.6c2.9-5.1,4.6-11,4.6-17.3C78.6,24.8,62.8,9,43.3,9C23.9,9,8,24.8,8,44.3
		c0,19.5,15.8,35.3,35.3,35.3c7.3,0,14-2.2,19.7-6l15,15c1.6,1.6,3.7,2.4,5.8,2.4c2.1,0,4.2-0.8,5.8-2.4
		C92.7,85.4,92.7,80.3,89.6,77.1z M18.9,44.3c0-13.5,11-24.4,24.4-24.4c13.5,0,24.4,11,24.4,24.4c0,13.5-11,24.4-24.4,24.4
		C29.9,68.7,18.9,57.8,18.9,44.3z" />
</g>
<g id="Ebene_4">
	<polygon fill="#242424" points="44.3,4.5 84.1,4.5 50,38.6 78.4,38.6 21.6,95.5 44.3,50 15.9,50 	" />
</g>
<g id="Ebene_5">
	<path fill="#242424" d="M66.8,8H29v15H13v70h58V77h16V28.9L66.8,8z M61,82H23V34h6v43h32V82z M77,66H39V18h22v16h16V66z" />
</g>
<g id="Ebene_6">
	<path fill="#242424" d="M50,10.5c-21.8,0-39.5,17.7-39.5,39.5c0,21.8,17.7,39.5,39.5,39.5S89.5,71.8,89.5,50
		C89.5,28.2,71.8,10.5,50,10.5z M60.8,70.6C60.8,70.6,60.8,70.6,60.8,70.6c0.2,0,0.3,0,0.5-0.3c0,0.5,0.1,0.9,0.3,1.4
		c-0.6-2.2,1.7-2.2,2.7-3.5c0.4-0.5,1-1.9,1.5-2.1c0.3,0.4,0.3,0.8,0.2,1.2c0.1-0.3,0,0,0,0.1c0,0.4-0.1,0.9-0.3,1.2
		c-0.1-0.1-0.1-0.2-0.1-0.3c-1.7,1.4-1.7,5.4-4.1,6.4c-1.3,0.5-1.1-1.2-0.6-1.8C61.4,72.1,60.4,71.5,60.8,70.6
		C60.9,70.6,60.8,70.6,60.8,70.6C60.8,70.6,60.8,70.6,60.8,70.6C60.8,70.6,60.8,70.6,60.8,70.6c-0.4-0.1-0.8-1.2-0.8-1.8
		c0.5-0.1,0.8-0.4,0.8-0.2c0.1-0.2,0.7-1.2,0.7-1.4C61.6,68.1,60.3,69.9,60.8,70.6z M78.6,45.3c-0.7-1.3-1.2-2.7-1.7-3.5
		c-0.8-1.3-1.4-3.5-2.6-4.5c0.3,0.3,0.3,0.7,0.1,1.1c-0.6-0.2-1.2-0.6-1.5-1.1c-0.1-0.3,0.7,0.3,0.3-0.4c-1,0.1-1.7-0.9-2.6-1.5
		c-1.5-0.2-3,1-4.5,0.2c-0.3-0.2-0.7-1.4-1.2-0.7c-0.3,0.4-0.6,0.4-1,0.2c-1.7-0.5-2.4-1.9-3.9-2c0,0.6,1.1,1.6,1.6,1.9
		c0.7,0.4,1.1,2.1,1.2,0.6c1,0.6,0.3,1.8,1.6,1.3c1,0.4,0.8-1.3,1-1.8c0.3,0.2,0.5,1,0.8,1.3c0.5,0.5,1.3,0.3,1.8,0.8
		c0.6,0.7,1,1.6,0.8,2.4c-0.6,0-0.1,0.7-0.5,1.3c-0.4,0.6-0.4,0.7-0.6,1.4c-0.7,0.2-1.5,0.5-1.4,1.4c-0.5,0.6-4.9,3.7-5.4,2.9
		c-0.7-1.1-0.9-2.6-1.5-3.7c-0.9-0.3-2.6-2.5-3-3.3c0.3-1.5-3.6-4.4-4.3-4.4c0.5,2,2.2,3.1,3,4.6c0.7,1.3,1.9,4.4,2.9,4.9
		c1.7-0.2,2.8,3,3.7,3.6c1.2,0.8,3.7-1.9,4.7-1.6c0.1,1.4,0.1,1.8-0.3,3.4c-0.9,3.2-2.4,4.6-4.2,7.2c-1.1,1.5-1.8,2.6-2.6,4.2
		c-0.6,1.3,1.2,4,0.7,4.7c0.3,2.1-0.2,3.4-2.1,4.4c-1.3,0.8-2.5,1.5-2,3c0.5,1.5-1.4,1.7-1.6,2.5c-0.6,1.4-1.3,2.1-2.3,2.6
		c-0.6,0-1.3,0.1-1.9,0.1c-1.2,0-2.3-0.1-3.4-0.2c-1.5-1.9-3-3.8-4.6-5.7c-1-1.1-2.3-3.1-0.9-4.6c0.2-0.9-1-3.1-1.4-3.9
		c-0.8-1.4-4.6-4.4-3.2-6c0.2-1.1-0.7-2.1-0.7-2.9c-0.8-0.7-1.6,0.9-2.4-0.5c-0.8-1.5-2.4-1.1-3.6-0.2c-0.3,0.2-3.8,0.7-4.1,0.4
		C22.9,53,22,49.3,23,46.1c0.4-1.3,0.4-3.7,1.5-4.6c0.3-1.4,2-2.8,2.8-3.9c0.5-0.6,1.2-0.7,1.7-1.3c0.8-0.9,1.2-2,2.2-2.9
		c1-0.8,3.3-2.2,1.4-2.5c0.7-1.1,1.9-2.3,2.4-3.6c0.7-0.5,1.9-0.3,2.6-0.7c0.6-1.3,0.9-1.2,0.6-2.1c0.1-0.5,1.8-0.9,2.1-1.1
		c0.7-0.3,1.2-0.9,1.8-1.3c2.5-0.7,5.1-1.1,7.8-1.1C64.4,21,76.3,31.6,78.6,45.3z" />
</g>
</svg>