<svg xmlns="http://www.w3.org/2000/svg" width="1004" height="420" viewBox="0 0 170.06 70.992"><path fill="#265581" d="M30.6 44.28c0 4.896-3.384 7.272-10.224 7.272H0V18.648h20.016c6.84 0 10.224 2.376 10.224 7.2V28.8c0 1.584-.576 2.88-1.728 3.888-1.224.936-2.808 1.44-4.896 1.512 4.68.216 6.984 2.232 6.984 6.192v3.888zm-7.056-3.168c0-1.296-.288-2.232-.936-2.808s-1.728-.864-3.24-.864H7.992v7.344h11.376c1.512 0 2.592-.288 3.24-.792.648-.576.936-1.512.936-2.88zM19.08 31.32c1.512 0 2.592-.288 3.168-.72.576-.504.936-1.368.936-2.592s-.36-2.088-.936-2.52c-.576-.504-1.656-.72-3.168-.72H7.992v6.552H19.08zm150.98 20.232h-18.072c-3.168 0-5.616-.864-7.416-2.664s-2.664-4.248-2.664-7.416V29.376c0-3.168.864-5.472 2.664-7.272s4.248-2.664 7.416-2.664h18.072v6.552h-16.128c-2.592 0-3.888 1.296-3.888 3.888v11.088c0 2.52 1.296 3.816 3.888 3.816h16.128v6.768zm-64.22 0V29.088c0-3.168.864-5.616 2.664-7.416 1.8-1.728 4.248-2.664 7.416-2.664h10.152c3.168 0 5.904.936 7.632 2.664 1.8 1.8 3.168 4.104 3.168 7.272v22.608h-8.136v-21.96c0-2.592-1.296-3.816-3.96-3.816h-8.208c-2.52 0-3.816 1.224-3.816 3.816v21.96h-6.912zM92.232 20.088h8.208v31.464h-8.208z"/><radialGradient id="A" cx="60.704" cy="35.216" r="16.106" gradientUnits="userSpaceOnUse"><stop offset="0" stop-color="#f9c635"/><stop offset=".52" stop-color="#f9c635"/><stop offset=".71" stop-color="#f7b832"/></radialGradient><path fill="url(#A)" fill-rule="evenodd" d="M60.912 46.872c6.264 0 11.376-5.112 11.376-11.376S67.176 24.12 60.912 24.12c-6.336 0-11.448 5.112-11.448 11.376s5.112 11.376 11.448 11.376z"/><radialGradient id="B" cx="64.704" cy="35.216" r="111.28" gradientUnits="userSpaceOnUse"><stop offset="0" stop-color="#265581"/><stop offset=".24" stop-color="#265581"/><stop offset=".61" stop-color="#0086b8"/></radialGradient><path fill="url(#B)" fill-rule="evenodd" d="M75.456 44.784v-.072c-.648.936-1.368 1.8-2.232 2.592s-1.728 1.512-2.664 2.16l-2.016 1.08-.072-.072c-1.944 1.008-4.104 1.512-6.264 1.656-1.224.144-2.448.072-3.672-.072-.072 0-.216 0-.288-.072-1.8-.216-2.232-.144-3.384 1.152L51.12 56.88c4.824 2.088 10.152 2.52 15.264 1.44.072-.072.144-.072.216-.072 3.024-.72 5.976-1.944 8.568-3.816l11.088 10.224c4.968 4.536 9.648 6.336 15.408 6.336h68.4v-6.696h-68.328c-2.952 0-6.84-1.296-9.72-4.032l-16.56-15.48zM53.424 20.52c2.592-1.296 5.472-1.8 8.28-1.728h.144.072c.504.072 1.008.072 1.512.144.072 0 .144.072.216.072 1.8.216 2.232.216 3.456-1.08l3.672-3.816-1.656-.648c-1.944-.648-3.96-1.08-5.976-1.224v-.072H63c-4.104-.288-8.28.36-12.096 2.088-1.44.576-2.808 1.368-4.104 2.304L35.64 6.336C30.672 1.8 26.064 0 20.232 0H0v6.696h20.16c2.952 0 6.84 1.296 9.72 4.032L46.512 26.28h.072c.576-.936 1.296-1.8 2.16-2.592s1.728-1.512 2.736-2.16c.576-.36 1.224-.72 1.944-1.008zm29.88 24.048l-3.312-2.808c-1.656-1.44-1.944-2.016-1.872-3.888V37.8c0-.144.072-.36.072-.576 0-.144 0-.288.072-.432v-.288c.288-4.608-1.368-9.288-5.04-12.816-.864-.792-1.728-1.512-2.664-2.16L86.256 6.336C91.08 1.656 95.904 0 101.664 0h68.4v6.696h-68.328c-2.952 0-6.84 1.296-9.72 4.032-1.368 1.296-11.304 11.232-11.304 11.232 4.248 5.76 5.4 12.888 3.744 19.44-.072.072-.072.144-.144.216-.216 1.008-.576 2.016-1.008 2.952zM38.52 26.424l3.24 2.88c1.656 1.368 2.016 1.944 1.872 3.888v.072c0 .288-.072.648-.072 1.008-.072.936-.072 1.8 0 2.736.36 3.744 2.016 7.416 4.968 10.296.864.792 1.728 1.512 2.736 2.16l-15.84 15.192c-4.824 4.68-9.576 6.336-15.408 6.336H0v-6.696h20.016c2.88 0 6.84-1.296 9.648-4.032 1.368-1.296 11.376-11.232 11.376-11.232-4.608-6.336-5.688-14.256-3.096-21.384l.072.072c.144-.432.288-.864.504-1.296z"/></svg>