<svg xmlns="http://www.w3.org/2000/svg" xmlns:xlink="http://www.w3.org/1999/xlink" viewBox="0 0 818.9 200"><defs><linearGradient id="A" x1="87.15" y1="1.77" x2="87.15" y2="200.4" gradientUnits="userSpaceOnUse"><stop offset="0" stop-color="#7f00f7"/><stop offset=".54" stop-color="#41007f"/></linearGradient><linearGradient id="B" xlink:href="#A"/><path id="C" d="M379.04 46.73c0-8.23 6.59-13.91 15.56-13.91 9.16 0 15.56 5.68 15.56 13.91s-6.4 14.1-15.56 14.1c-8.97 0-15.56-5.83-15.56-14.1zm2.2 27.46h26.91V165h-26.91z"/></defs><g fill="#fff"><path d="M259.88 43.44A51.59 51.59 0 0 1 297.04 59l-14.83 16.66c-6-5.5-11.71-9-22-9-18.31 0-31.49 14.45-31.49 38.43 0 24.53 11.17 38.81 33.69 38.81 4.75 0 9.7-1.28 12.62-3.66v-20.5h-19.72v-22h43.74v54.92c-8.6 7.5-23.43 14.46-40.08 14.46-32.22 0-57.85-21.05-57.85-61.14 0-39.48 26.33-62.54 58.76-62.54zm54.91 30.75h22l1.83 15.92h.74C345.91 77.85 355.8 72 365.13 72c5.13 0 8.24.74 10.8 1.83l-4.39 23.25a34.13 34.13 0 0 0-9.89-1.46c-6.77 0-15.18 4.39-19.95 16.65V165h-26.91z"/><use xlink:href="#C"/><path d="M458.3 72c10.07 0 16.11 3.67 22.34 9.52l-1.1-13.91V36.67h26.91V165h-22l-1.83-9h-.74c-6.4 6.41-15.37 11.17-24.16 11.17-22.51 0-37.15-17.94-37.15-47.59S439.08 72 458.3 72zm6.41 73.22c5.86 0 10.43-2.19 14.83-8.24V99.82a21.49 21.49 0 0 0-15-5.86c-8.61 0-16.3 8.05-16.3 25.26-.01 17.94 6.04 25.99 16.47 25.99zM565.75 72c11.17 0 20.5 4.22 26.54 10.44l-12.26 16.65c-4.4-3.67-8.42-5.32-12.63-5.32-13 0-21.24 10.07-21.24 25.82s8.61 25.81 20.29 25.81c6.59 0 11.9-3.12 16.29-6.59l10.8 17a47.12 47.12 0 0 1-30.2 11.35c-25.26 0-44.85-17.39-44.85-47.59S540.67 72 565.75 72zm71.02 0c22.89 0 44.12 17.4 44.12 47.6s-21.23 47.59-44.12 47.59c-23.06 0-44.29-17.39-44.29-47.59S613.71 72 636.77 72zm0 73.41c11 0 16.66-10.07 16.66-25.81s-5.68-25.82-16.66-25.82c-11.16 0-16.65 10.07-16.65 25.82s5.49 25.8 16.65 25.8z"/><use xlink:href="#C" x="311.73"/><path d="M737.08 74.19h22l1.84 11.53h.73C769.3 78.4 778.45 72 790.71 72c19.77 0 28.19 13.92 28.19 36.61V165h-26.91v-52.9c0-13.18-3.48-17.21-11.16-17.21-6.77 0-11 3.11-16.84 8.79V165h-26.91zM.98 50.56L86.6 1.13l85.63 49.43v98.88L86.6 198.87.98 149.44V50.56z"/></g><g transform="translate(-.55)"><path d="M124.13 32.84a136.21 136.21 0 0 1-16 11.37c-5.32 3.28-10.79 6.33-16.11 9.3l-4.82 2.71C62.88 70 47.26 81.16 47.26 100c0 15.92 11.21 26.29 29.36 37.38q3.12 1.89 6.5 3.84l-2.41 1.34c-5.44 3-11.07 6.13-16.64 9.55l-1.65 1c-2-1.28-3.91-2.58-5.8-3.95C40.63 137.65 28 122.82 28 100c0-27.23 18-43.2 38.21-55.79 5.65-3.51 11.48-6.76 17.14-9.92l3.79-2.12c6.5-3.67 12.33-7.14 17.46-10.61L87.15 11.49 69.69 21.57c2.19 1.48 4.49 3 7 4.47l6.49 3.83-1.68.94c-5.68 3.17-11.56 6.45-17.3 10l-1.63 1c-2-1.27-3.91-2.57-5.8-3.92-2.27-1.63-4.45-3.33-6.56-5.1L10.49 55.74v88.52L49.93 167a133.46 133.46 0 0 1 16.2-11.51c5.44-3.34 11-6.45 16.48-9.46l4.54-2.54c11.62-6.53 21.25-12.48 28.14-19H74l12.38-21.48h59.83a51.28 51.28 0 0 1-5.76 21.48c-6.89 13.24-19.1 22.83-32.27 31-5.61 3.46-11.39 6.67-17 9.78q-2.06 1.13-4 2.24c-6.61 3.72-12.54 7.23-17.73 10.75l17.73 10.23 17.73-10.23c-2.26-1.54-4.63-3.07-7.18-4.62q-3.12-1.89-6.51-3.83l1.89-1.05c5.63-3.13 11.46-6.36 17.16-9.87l1.65-1c2 1.27 3.89 2.56 5.77 3.91 2.33 1.66 4.56 3.42 6.72 5.24l39.43-22.76V55.74zm2 59.49c-3.06-11.86-13.36-20.66-28.47-30l-6.45-3.85L93.88 57c5.06-2.82 10.78-6 16.25-9.38l1.64-1a103.78 103.78 0 0 1 5.78 4c14.18 10.3 25.72 23.15 28.22 41.78z" fill="url(#A)"/><path d="M87.15,200,.55,150V50L87.15,0l86.6,50V150ZM4.73,147.58l82.42,47.59,82.42-47.59V52.41L87.15,4.83,4.73,52.41Z" fill="url(#B)"/></g></svg>
