<svg xmlns="http://www.w3.org/2000/svg" xmlns:xlink="http://www.w3.org/1999/xlink" viewBox="0 0 1910.16 940.73"><style>.B{fill:#5411b3}.C{fill:#420479}.D{fill:#7235d3}.E{fill:#b3b3b3}.F{fill:#828282}.G{fill:#5c5c5c}</style><defs><clipPath id="A"><path fill="none" d="M593.86 31.67h724.6v725.22h-724.6z"/></clipPath><clipPath id="B"><path fill="none" d="M994.06 257.83l-23.37-13.95 9.86-5.55c18.31-10.22 39.06-21.8 58.88-34q3-1.83 5.94-3.7c7.1 4.66 14.12 9.41 20.94 14.36 51.37 37.33 93.18 84 102.24 151.49h-71.34c-11.08-43-48.4-74.9-103.15-108.64M892.89 109.88c8 5.38 16.27 10.76 25.2 16.21l23.5 13.9-6.07 3.41c-20.6 11.5-41.89 23.38-62.67 36.31l-5.93 3.75c-7.12-4.62-14.16-9.32-21-14.22-8.22-5.89-16.11-12.08-23.75-18.49L678.44 233.8v321l142.86 82.52c18.1-15.28 38-29 58.69-41.74 19.72-12.13 40-23.39 59.73-34.33q8.4-4.65 16.44-9.18c42.09-23.7 77-45.26 101.94-68.76H908.51l44.85-77.89h216.78a187 187 0 0 1-20.86 77.89c-25 48-69.2 82.76-116.94 112.27-20.34 12.55-41.24 24.16-61.59 35.42l-14.59 8.14c-24 13.47-45.42 26.21-64.22 39l64.22 37.11 64.24-37.12c-8.18-5.57-16.77-11.13-26-16.75l-23.59-13.9 6.83-3.81c20.42-11.32 41.54-23 62.18-35.78l6-3.76c7.09 4.6 14.1 9.28 20.91 14.16 8.43 6.05 16.52 12.42 24.32 19l142.86-82.54v-321l-143.74-83.05c-18 15.05-37.72 28.66-58.17 41.25-19.28 11.88-39.08 22.94-58.35 33.7q-8.93 5-17.47 9.83C868.23 285.45 811.65 326 811.65 394.29c0 57.7 40.59 95.31 106.37 135.52 7.51 4.6 15.39 9.23 23.53 13.93l-8.7 4.86-60.3 34.65-6 3.73c-7.13-4.64-14.17-9.37-21-14.32C787.63 530.8 741.89 477 741.89 394.29c0-98.75 65.12-156.65 138.46-202.29 20.47-12.74 41.57-24.52 62.08-36l13.73-7.71c23.56-13.31 44.68-25.9 63.26-38.45l-63.26-36.52z"/></clipPath><linearGradient id="C" x1="-5.11" x2="-3.66" y1="1016.45" y2="1016.45" gradientTransform="matrix(0, 496.58, 496.58, 0, -503798.46, 2575.06)" gradientUnits="userSpaceOnUse"><stop offset="0" stop-color="#7f00f7"/><stop offset="0" stop-color="#7f00f7"/><stop offset=".54" stop-color="#41007f"/></linearGradient><clipPath id="D"><path fill="none" d="M657.56,566.83V221.74L956.16,49.19l298.61,172.55V566.83L956.16,739.38ZM956.16,31.67,642.4,213V575.59l313.76,181.3,313.77-181.3V213Z"/></clipPath><linearGradient id="E" xlink:href="#C"/></defs><path fill="#fff" d="M708.22 936.73a58.57 58.57 0 0 1-20.74-3.65 45.81 45.81 0 0 1-16.94-11 51.8 51.8 0 0 1-11.34-18.51q-4.14-11.12-4.14-25.9a73.85 73.85 0 0 1 4.22-25.9 56.49 56.49 0 0 1 11.42-19 49.18 49.18 0 0 1 16.78-11.84 50.48 50.48 0 0 1 20.09-4.09q11.67 0 20.18 4.54a52.18 52.18 0 0 1 14.18 10.76l-14.59 19.58a40.41 40.41 0 0 0-8.18-6.14 23.47 23.47 0 0 0-20.5-.09 24.16 24.16 0 0 0-7.94 6.59 30.82 30.82 0 0 0-5.27 10.5 49.15 49.15 0 0 0-1.86 14.06q0 16.38 6.64 25.1 6.64 8.72 20.91 8.72a18.49 18.49 0 0 0 4.45-.53 10.3 10.3 0 0 0 3.65-1.6v-16h-15.56v-25.02h40.19v55.18a47.56 47.56 0 0 1-15.07 10.06 50.21 50.21 0 0 1-20.58 4.18zm53.78-2.14v-89h22.69l1.94 15.31h.65q4.55-9.07 10.78-13.26 6.23-4.19 12.24-4.18a33 33 0 0 1 6 .44 15.79 15.79 0 0 1 4.05 1.34l-4.53 26.34-4.3-1a23 23 0 0 0-4.78-.44 16.24 16.24 0 0 0-9.16 3.29q-4.77 3.3-7.69 11.66v49.48zm81.7-100.03a15.32 15.32 0 0 1-11.18-4.28 16.09 16.09 0 0 1 0-22.07 16.77 16.77 0 0 1 22.36 0 16.09 16.09 0 0 1 0 22.07 15.33 15.33 0 0 1-11.18 4.28zm-13.94 100v-89h27.88v89zm76.17 2.17a28.91 28.91 0 0 1-13.7-3.21 29.53 29.53 0 0 1-10.37-9.25 45.91 45.91 0 0 1-6.64-14.69 74.1 74.1 0 0 1-2.35-19.49 63.23 63.23 0 0 1 2.83-19.58 48 48 0 0 1 7.46-14.68 33.34 33.34 0 0 1 10.61-9.17 25.5 25.5 0 0 1 12.16-3.2 21.78 21.78 0 0 1 10.86 2.4 32.94 32.94 0 0 1 7.94 6.5l-1-12.82V810.7h27.88v123.89h-22.67L927 926.4h-.65a34.85 34.85 0 0 1-9.65 7.48 23 23 0 0 1-10.77 2.85zm7.45-24.92a11.59 11.59 0 0 0 5.67-1.34 13.59 13.59 0 0 0 4.7-5.07v-32.75a12.57 12.57 0 0 0-5.34-3.38 19.23 19.23 0 0 0-5.68-.89q-4.37 0-7.86 4.8-3.49 4.8-3.48 16.56 0 12.1 3.16 17.09a9.92 9.92 0 0 0 8.83 4.98zm93.67 24.92a41.06 41.06 0 0 1-16-3.12 36.7 36.7 0 0 1-13-9.07 42.94 42.94 0 0 1-8.67-14.69 57.65 57.65 0 0 1-3.16-19.76 51.82 51.82 0 0 1 3.57-19.76 43.67 43.67 0 0 1 9.56-14.68 40.77 40.77 0 0 1 13.85-9.08 44.4 44.4 0 0 1 16.45-3.11 33.16 33.16 0 0 1 13.13 2.49 37.45 37.45 0 0 1 10.53 6.76l-13 19.58a19.39 19.39 0 0 0-4.78-3.38 10.61 10.61 0 0 0-4.3-.89 14.24 14.24 0 0 0-12.15 6q-4.38 6-4.38 16.11 0 10.11 4.46 16.11 4.45 6 11.1 6a15.35 15.35 0 0 0 6.73-1.6 29.29 29.29 0 0 0 6.24-4.09L1034 926.4a33.68 33.68 0 0 1-13.37 8.1 45.83 45.83 0 0 1-13.58 2.23zm70.95 0a38.35 38.35 0 0 1-28-12.19 44.19 44.19 0 0 1-8.91-14.69 60.46 60.46 0 0 1 0-39.52 44.25 44.25 0 0 1 8.91-14.68 38.24 38.24 0 0 1 28-12.19 37.56 37.56 0 0 1 15 3.11 38.3 38.3 0 0 1 12.8 9.08 45.26 45.26 0 0 1 9 14.68 59.12 59.12 0 0 1 0 39.52 45.2 45.2 0 0 1-9 14.69 38.13 38.13 0 0 1-12.8 9.07 37.4 37.4 0 0 1-15 3.12zm0-24.57q6.32 0 9-6 2.68-6 2.68-16.11 0-10.14-2.68-16.11-2.68-5.97-9-6-6.32 0-9 6-2.68 6-2.68 16.11 0 10.15 2.68 16.11 2.68 5.96 9 6zm68.74-77.6a15.33 15.33 0 0 1-11.18-4.28 16.09 16.09 0 0 1 0-22.07 16.77 16.77 0 0 1 22.36 0 16.09 16.09 0 0 1 0 22.07 15.32 15.32 0 0 1-11.18 4.28zm-13.94 100v-89h27.88v89zm46.68.03v-89h22.68l1.95 10.68h.65a54.09 54.09 0 0 1 11.1-9 27.17 27.17 0 0 1 14.5-3.82q13.29 0 19.29 9.88 6 9.88 6 26.43v54.82h-27.87v-50.9q0-8.53-2-11.39c-1.29-1.89-3.35-2.85-6.15-2.85a11.25 11.25 0 0 0-6.49 1.78 44.1 44.1 0 0 0-5.83 5v58.38z"/><g class="C"><path d="M1553.3 156.14l-18.97 25.26 82.18 33.9 35.16-47.86"/><path d="M1398.84 394.74l50.79 279.91 220.18-181.84-54.14-282.25-216.83 184.18z"/></g><path d="M1740.98 362.3l-84.28-15.28-55.54 66.98 86.79 14.79 53.03-66.49z" class="E"/><path d="M1398.84 394.74l216.83-184.18 54.14 277.11-220.18 186.98-50.79-279.91z" class="C"/><path d="M373.81 518l80.93 107.53 129.77-12.83-74.93-112.75L373.81 518z" class="D"/><path d="M373.81 518l80.93 107.53L404.65 750l-85.53-108.28L373.81 518z" class="B"/><path d="M584.51 612.7l-46.32 127.94L404.65 750l50.09-124.47 129.77-12.83z" class="C"/><path d="M438.56 147.77l71.02 76.46-102.56 26.24-74.37-78.7 105.91-24z" class="F"/><path d="M332.65 171.77l-30.14 103.25 74.23 75.49 30.28-100.04-74.37-78.7z" class="G"/><path d="M407.02 250.47l102.56-26.24-30.14 108.14-102.7 18.14 30.28-100.04z" class="E"/><path d="M1649.44 560.44l13.68 41.31 27.07-32.38-13.4-39.9-27.35 30.97z" class="D"/><path d="M1676.79 529.47l42.14 6.14 12.56 39.9-41.3-6.14-13.4-39.9z" class="C"/><path d="M1731.49 575.51l-41.3-6.14-27.07 32.38 42.95 7.11 25.42-33.35z" class="B"/><path d="M302.62 940.73l70.84-93.35-45.97-106.74-69.14 91.67 44.27 108.42z" class="G"/><path d="M302.62 940.73l-116.69-14.65-37.67-106.67 110.09 12.9 44.27 108.42z" class="F"/><path d="M148.26 819.41l110.09 12.9 69.14-91.67-116.65-15.66-62.58 94.43z" class="E"/><path d="M.05,807.52c.32.32,36.37,20.1,36.37,20.1v42.9L0,849.8Z" class="B"/><path d="M.05 807.52l36.37 20.1 36.36-20.1-36.31-21.35L.05 807.52z" class="D"/><path d="M72.78 807.52l-.05 41.86-36.31 21.14v-42.9" class="C"/><path d="M88.88 862.78l-4.46-66.42 55.39-37.12 4.89 66.74" class="B"/><path d="M149.44 893.37l-60.56-30.59 55.82-36.8 59.16 30-54.42 37.39" class="C"/><path d="M139.81 759.24l60.14 29.5 3.91 67.24-59.16-30m37.46-181.19l62.79-54.7 80.66 27.35-64.75 55.82-78.7-28.47z" class="D"/><path d="M182.16 644.79l15.07 81.77 79.82 28.74-16.19-82.04-78.7-28.47z" class="B"/><path d="M325.61 617.44l15 82.33-63.56 55.53-16.19-82.04 64.75-55.82z" class="C"/><path d="M446.68 729.27l4.16 64.63 57.04 28.49-3.85-65.5-57.35-27.62z" class="F"/><path d="M446.68 729.27L499 693.06l56.72 27.62-51.69 36.21-57.35-27.62z" class="E"/><path d="M504.03 756.89l51.69-36.21 6.56 65.71-54.4 36-3.85-65.5z" class="G"/><path d="M396.84 331.26l9.21 53.3 40.74-34.05-9.21-53.3-40.74 34.05z" class="B"/><path d="M437.58 297.21l49.68 18.42 8.09 51.91-48.56-17.03-9.21-53.3z" class="D"/><path d="M495.35 367.54l-40.19 34.32-49.11-17.3 40.74-34.05 48.56 17.03z" class="C"/><path d="M1227.07 649.26l51.07-5.03-20.93 48.14-51.49 3.35 21.35-46.46z" class="D"/><path d="M1257.21 692.37l29.3 39.77-51.07 6.7-29.72-43.12 51.49-3.35z" class="B"/><path d="M1257.21 692.37l29.3 39.77 21.63-46.75-30-41.16-20.93 48.14z" class="C"/><path d="M1533.77 639.63l49.95 15.21 11.86 50.37-50.37-14.79-11.44-50.79z" class="D"/><path d="M1533.77 639.63l37.95-35.86 48 14.65-36 36.42-49.95-15.21z" class="C"/><path d="M1583.72 654.84l36-36.42 13.26 50.65-37.4 36.14-11.86-50.37z" class="B"/><path d="M1704.98 593.02l56.93-26.79 51.35 36.56-56.65 26.65-51.63-36.42z" class="E"/><path d="M1756.61 629.44l-5.31 62.93-53.02-37.39 6.7-61.96 51.63 36.42z" class="F"/><path d="M1756.61 629.44l56.65-26.65-5.03 63.63-56.93 25.95 5.31-62.93z" class="G"/><path d="M1824.35 291.77l43.32 4.6 16.96 38.72-42.7-3.14-17.58-40.18z" class="B"/><path d="M1824.35 291.77l25.11-35.16 42.49 4.39-24.28 35.37-43.32-4.6z" class="D"/><path d="M1867.67 296.37l16.96 38.72 25.53-34.74-18.21-39.35-24.28 35.37z" class="C"/><path d="M1740.98 207.35l39.21 32.23-8.24 51.21-40.32-33.49 9.35-49.95z" class="E"/><path d="M1740.98 207.35l48-18.28 39.21 33.35-48 17.16-39.21-32.23z" class="F"/><path d="M1780.19 239.58l48-17.16-7.68 50.51-48.56 17.86 8.24-51.21z" class="G"/><path d="M229.5 471.12l-57.77 85.39 105.21 8.37 59.1-87.07-106.54-6.69z" class="F"/><path d="M276.94 564.88l18.69 42.4 29.98 10.16 1.23 6.8L364.97 538l-28.93-60.19-59.1 87.07z" class="E"/><path d="M171.73 556.51l105.21 8.37 18.69 42.4-50.68-17.19-40.96 35.69-32.26-69.27z" class="G"/><path d="M657.1 28.58l2.72 68.86-57.56 36-2.51-69.69 57.35-35.17z" class="D"/><path d="M602.26 133.44l36.28 19.12 45.07-39.07 8.51 3.91v-3.91l-32.3-16.05-57.56 36z" class="B"/><path d="M659.82 97.44l-2.72-68.86 59.65 31.61v3.56l-28.04 20.3 3.41 29.44-32.3-16.05z" class="C"/><path d="M528.7 247.4l114.14 39.97v-74.02l56.65-32.09-7.37-63.86-8.51-3.91L528.7 247.4z" class="E"/><path d="M568.61 449.16L528.7 247.4l114.14 39.97v187.65l-74.23-25.86z" class="F"/><path d="M688.71 84.05l99.8 44.88-89.02 52.33-10.78-97.21z" class="B"/><path d="M688.71 84.05L798.98 3.77l90.41 40.14-29.72 44-71.16 41.02-99.8-44.88z" class="D"/><path d="M859.67 87.91l29.72-44L918.28 0l21.35 42.28-79.96 45.63z" class="F"/><path d="M918.28 0l21.35 42.28 16.23-8.37 293.12 169.11-96.28-190.46L918.28 0z" class="E"/><path d="M1172.74 52.21l118.1-21.09-43.54 125.02-20.28 3.44-54.28-107.37z" class="F"/><path d="M1227.02 159.58l21.96 43.44 18.14 10.33v54.98l66.42-11.72-86.24-100.47-20.28 3.44z" class="G"/><path d="M1247.3 156.14l43.54-125.02 86.86 100.32-44.16 125.17-86.24-100.47z" class="E"/><path d="M1267.12 268.33v78.69l131.72 47.72 216.83-184.18-245.72-88.07 7.75 8.95-44.16 125.17-66.42 11.72z" class="D"/><path d="M1267.12 347.02v226.89l-38.66 21.97 221.17 78.77-50.79-279.91-131.72-47.72z" class="B"/><path d="M1571.02 333.07l30.14 80.93 55.54-66.98-30.7-80.37-54.98 66.42z" class="F"/><path d="M1626 266.65l84.42 14.51 30.56 81.14-84.28-15.28-30.7-80.37z" class="G"/><path d="M1601.16 414l55.54-66.98 84.28 15.28-55.47 66.04-84.35-14.34z" class="E"/><path d="M1738.33 394.74l-24.28 87.19 61.53 66.65 25.12-87.91-62.37-65.93z" class="C"/><path d="M642.84 573.49v-98.47l-74.23-25.86-7.49-37.82-66.54 52.89 25.61 205.96 122.65-96.7z" class="B"/><path d="M642.84 573.49l-122.65 96.7 193.25 75.9 94.33-75.9-164.93-96.7z" class="C"/><path d="M1649.44 416.93L1626 503.58l88.05-21.65 24.28-87.19-88.89 22.19z" class="D"/><path d="M1626 503.58l37.12 41.37 13.67-15.48 42.14 6.14 7.92 25.15 48.73-12.18-61.53-66.65-88.05 21.65z" class="B"/><path d="M1826.78 481.93l-17.34 25.53h-32.03l17.48-25.53h31.89z" class="E"/><path d="M1777.41 507.46l13.71 27.93h29.72l-11.4-27.93h-32.03z" class="F"/><path d="M1809.44 507.46l11.4 27.93 18.56-27.93-12.62-25.53-17.34 25.53z" class="G"/><path d="M1512.28 62.79l41.02 93.35 98.37 11.3-37.81-92.93-101.58-11.72z" class="D"/><path d="M1512.28 62.79l-58.61 81.07 3.97 10.06 76.69 27.48 18.97-25.26-41.02-93.35z" class="B"/><g clip-path="url(#A)"><path fill="#fff" d="M645.94 215.03L956.16 35.77l310.22 179.26v358.51L956.16 752.8 645.94 573.54V215.03z"/><g clip-path="url(#B)"><path fill="url(#C)" d="M678.44 73.32h555.45v641.93H678.44z"/></g><g clip-path="url(#D)"><path fill="url(#E)" d="M642.4 31.67h627.52v725.22H642.4z"/></g></g></svg>