<svg xmlns="http://www.w3.org/2000/svg" xmlns:xlink="http://www.w3.org/1999/xlink" id="Layer_4" data-name="Layer 4" viewBox="0 0 741.27 220"><defs><style>.cls-1{fill:none}.cls-2{fill:#387fe1}.cls-3{fill:#ffb300}.cls-4{fill:#fff}.cls-5{clip-path:url(#clip-path)}</style><clipPath id="clip-path"><circle cx="128.29" cy="112" r="73.42" class="cls-1"/></clipPath></defs><title>Dark4</title><path d="M280.53,158.32h-9.12a10,10,0,0,1-10-10v-37h8.64a13.13,13.13,0,0,0,13.13-13.13H261.41V57.68a13.13,13.13,0,0,0-13.13-13.13V148.31a23.14,23.14,0,0,0,23.13,23.14h22.25A13.13,13.13,0,0,0,280.53,158.32Z" class="cls-2"/><path d="M364.8,98.15l-26.48,26.48L319.79,98.15A8.35,8.35,0,0,0,313,111.28l15.95,22.77-24.27,24.27a7.69,7.69,0,0,0,5.44,13.13L336.54,145l18.54,26.48a8.34,8.34,0,0,0,6.83-13.13L346,135.55l24.27-24.27A7.69,7.69,0,0,0,364.8,98.15Z" class="cls-2"/><path d="M534,158.32h-9.12a10,10,0,0,1-10-10v-37h8.65a13.13,13.13,0,0,0,13.13-13.13H514.84V57.68a13.12,13.12,0,0,0-13.12-13.13V148.31a23.13,23.13,0,0,0,23.13,23.14H547.1A13.13,13.13,0,0,0,534,158.32Z" class="cls-3"/><path d="M473.74,98.15v60.17a13.12,13.12,0,0,0,13.12,13.13V111.28A13.12,13.12,0,0,0,473.74,98.15Z" class="cls-3"/><path d="M480.3,74a6.57,6.57,0,1,0,6.56,6.56A6.56,6.56,0,0,0,480.3,74Z" class="cls-3"/><path d="M423.07,98.15H405v13.13h17.76a23.52,23.52,0,1,1,.36,47h0a24.68,24.68,0,0,1-24.68-24.68v-76a13.13,13.13,0,0,0-13.13-13.13v89.51a37.39,37.39,0,0,0,37.39,37.39h0c20.23,0,37-16.22,37.06-36.45A36.69,36.69,0,0,0,423.07,98.15Z" class="cls-3"/><path d="M585.45,98.15h0v60.17a13.13,13.13,0,0,0,13.13,13.13V111.28A13.13,13.13,0,0,0,585.45,98.15Z" class="cls-4"/><path d="M592,74a6.57,6.57,0,1,0,6.56,6.56A6.57,6.57,0,0,0,592,74Z" class="cls-4"/><circle cx="566.08" cy="164.88" r="6.56" class="cls-4" transform="translate(-19.1 92.8) rotate(-9.22)"/><path d="M649.16,98.25A36.55,36.55,0,1,0,685.7,134.8,36.59,36.59,0,0,0,649.16,98.25Zm0,60a23.42,23.42,0,1,1,23.41-23.42A23.45,23.45,0,0,1,649.16,158.22Z" class="cls-4"/><g class="cls-5"><circle cx="128.29" cy="112" r="76.85" class="cls-4"/><path d="M160.93,115.27a24.73,24.73,0,0,0-33.74-9l-5.44,3.14L129.64,123a15.47,15.47,0,0,1-21.14-5.67l-4-7h0L93.74,91.8l-16.32,9.43a15.48,15.48,0,0,1,5.66-21.15L86,78.4,75.77,60.67C48.94,49.88,38.06,122.86,54.87,152c8.21,14.23,31.46,32,44.37,27.43L118,168.58h0L151.89,149A24.72,24.72,0,0,0,160.93,115.27Z" class="cls-2"/><path d="M166.15,186.88c35.07-20.25,53.8-82.52,33.55-117.59S122,23.5,86.92,43.75c-1.27.73-.29,4.6,1,6.94l11.52,20L132.94,51.3a15.48,15.48,0,0,1-5.67,21.14L107.14,84.06,114,95.9l0,.06,5.44-3.14a40.18,40.18,0,1,1,40.18,69.59L120.52,185C125.14,193.76,152.17,195,166.15,186.88Z" class="cls-3"/></g></svg>